<svg width="1374" height="1907" xmlns="http://www.w3.org/2000/svg" xmlns:xlink="http://www.w3.org/1999/xlink">
    <defs>
        <linearGradient x1="87.998%" y1="83.683%" x2="25.792%" y2="14.647%" id="a">
            <stop stop-color="#3790DB" offset="0%"/>
            <stop stop-color="#6D4DD9" offset="100%"/>
        </linearGradient>
        <linearGradient x1="104.131%" y1="51.813%" x2="-4.235%" y2="31.496%" id="c">
            <stop stop-color="#3790DB" offset="0%"/>
            <stop stop-color="#6D4DD9" offset="100%"/>
        </linearGradient>
        <path d="M0 673.822V129.367c53.643 15.948 119.097 32.972 198.807 41.06 149.95 16.183 236.455-13.284 335.49-.806 99.036 12.965 188.877 70.727 308.562 88.595 119.684 18.578 187.07-213.59 399.337-218.156 45.992-.99 89.927 10.327 131.804 34.148V1907H0V673.822z" id="b"/>
    </defs>
    <g transform="rotate(-180 687 953.5)" fill="none" fill-rule="evenodd">
        <path d="M1374 823.163c-36.08-2.411-71.878-25.037-107.396-67.515-71.92-84.434-189.882 29.361-307.257 15.8-117.376-13.563-138.812 75.823-289.043 55.93-150.23-19.892-163.681-105.894-300.275-121.74-136.593-15.844-187.247-52.992-325.091-68.085-16.742-1.833-31.608-3.01-44.938-3.731V89.367c53.643 15.948 119.097 32.972 198.807 41.06 149.95 16.183 236.455-13.284 335.49-.806 99.036 12.965 188.877 70.727 308.562 88.595C962.543 236.794 1029.929 4.626 1242.196.06c45.992-.99 89.927 10.327 131.804 34.148v788.955z" fill="url(#a)" fill-rule="nonzero" opacity=".1"/>
        <path d="M1374 843.163c-36.08-2.411-71.878-25.037-107.396-67.515-71.92-84.434-189.882 29.361-307.257 15.8-117.376-13.563-138.812 75.823-289.043 55.93-150.23-19.892-163.681-105.894-300.275-121.74-136.593-15.844-187.247-52.992-325.091-68.085-16.742-1.833-31.608-3.01-44.938-3.731V109.367c53.643 15.948 119.097 32.972 198.807 41.06 149.95 16.183 236.455-13.284 335.49-.806 99.036 12.965 188.877 70.727 308.562 88.595 119.684 18.578 187.07-213.59 399.337-218.156 45.992-.99 89.927 10.327 131.804 34.148v788.955z" fill="url(#a)" fill-rule="nonzero" opacity=".1"/>
        <mask id="d" fill="#fff">
            <use xlink:href="#b"/>
        </mask>
        <use fill="url(#c)" fill-rule="nonzero" xlink:href="#b"/>
        <g style="mix-blend-mode:overlay" mask="url(#d)">
            <path d="M1011.066 1907c-221.36-215.977-128.893-580.069 193.613-908.58C1259.37 942.71 1315.97 891.805 1374 846v1061h-362.934zM152.504 164.556c.536 18.093-.553 37.455-3.376 58.053C138.808 297.911 93.269 482.791 0 506.673V129.367c42.873 12.746 93.292 26.18 152.504 35.19zM1230.302 40.56c3.914-.246 7.878-.414 11.894-.5 45.992-.99 89.927 10.327 131.804 34.148v309.578c-28.335-8.33-52.35-23.316-69.565-47.016-64.206-88.389-89.324-194.087-74.133-296.21z" fill="#FEFEFE" opacity=".1"/>
            <path d="M0 528.578c105.444-106.432 230.596-44.331 308.06 123.717 92.208 200.034 75.828 422.405-67.934 570.627C191.27 1273.294 83.472 1361.501 0 1360.227v-831.65z" fill="#FEFEFE" opacity=".1"/>
            <path d="M1131.542 65.863c-25.57 74.33-74.853 142.432-147.033 194.313-171.01 122.917-374.846 61.82-481.548-93.221 10.364.483 20.78 1.336 31.336 2.666 99.036 12.965 188.877 70.727 308.562 88.595 95.968 14.897 158.31-131.425 288.683-192.353z" fill="#FEFEFE" opacity=".2"/>
            <path d="M0 1911v-393.633c53.643 15.948 119.097 32.972 198.807 41.06 149.95 16.183 236.455-13.284 335.49-.806 99.036 12.965 188.877 70.727 308.562 88.595 119.684 18.578 187.07-213.59 399.337-218.156 45.992-.99 89.927 10.327 131.804 34.148V1911H0z" fill="#FFF" fill-rule="nonzero" opacity=".1"/>
            <path d="M0 43.188h126.476c-15.943 72.616-32.961 161.223-41.047 269.126-16.178 202.99 13.28 320.092.806 454.158C73.793 895.174 20.08 1012.405 0 1164.919V43.187zm0 1192.22c27.388 133.218 211.69 233.602 215.753 489.355.989 62.26-10.324 121.735-34.137 178.425H0v-667.78z" fill="#FFF" fill-rule="nonzero" opacity=".2"/>
        </g>
    </g>
</svg>
