<?xml version="1.0"?>
<svg xmlns="http://www.w3.org/2000/svg" height="512px" viewBox="0 -9 472.00022 472" width="512px"><path d="m472 110.425781v-102.652343c-.011719-2.097657-.863281-4.101563-2.367188-5.566407-1.507812-1.460937-3.535156-2.253906-5.632812-2.20312475h-456c-2.097656-.05468745-4.128906.74218775-5.632812 2.20312475-1.503907 1.460938-2.3593755 3.46875-2.367188 5.566407v380.917968c-.0234375 4.476563 3.523438 8.164063 8 8.3125h139v28.65625c0 15.753906 13.246094 28.34375 29 28.34375h120c15.753906 0 29-12.589844 29-28.34375v-28.65625h139c4.476562-.152344 8.023438-3.835937 8-8.3125v-278.109375c0-.027343 0-.050781 0-.078125s0-.050781 0-.078125zm-16-94.421875v87h-440v-87zm-277.894531 272h130.894531v52h-146v-52zm9.992187-94h18.828125l-.105469 78h-18.621093zm4.917969-16 4.5-9.023437 4.5 9.023437zm85.972656-17h-5.988281v-5.714844l5.898438.015626zm-10.988281 22.5c0-.285156.050781-.570312.054688-.863281 0-.316406-.054688-.628906-.054688-.9375v-4.699219h16v95h-16zm28 254.5h-120c-6.933594 0-13-5.414062-13-12.34375v-69.65625h146v69.65625c0 6.929688-6.066406 12.34375-13 12.34375zm29-57v-93h5c4.417969 0 8-3.582031 8-8 0-4.417968-3.582031-8-8-8h-30v-103.101562c-.019531-3.238282-1.976562-6.152344-4.972656-7.386719l.082031-14.253906c.011719-2.140625-.835937-4.199219-2.351563-5.710938-1.507812-1.523437-3.570312-2.371093-5.714843-2.347656l-21.964844.140625c-4.421875.015625-8.015625 3.578125-8.078125 8v14.152344c-3.035156 1.199218-5.023438 4.140625-5 7.40625v5.636718l-6.753906-.042968c-3.363282-.042969-6.601563 1.277344-8.976563 3.664062-2.164062 2.191406-3.34375 5.164063-3.269531 8.242188v53.25c0 4.417968 3.582031 8 8 8s8-3.582032 8-8v-49.136719l3 .023437v81.464844h-29.179688l.117188-85.558594c0-1.273437-.289062-2.535156-.84375-3.679687l-17.421875-35.007813c-1.34375-2.722656-4.113281-4.449218-7.148437-4.457031-3.035157-.007812-5.8125 1.703125-7.171876 4.417969l-17.421874 34.953125c-.558594 1.179687-.84375 2.46875-.839844 3.777344l.109375 85.554687h-30.199219c-4.417969 0-8 3.582032-8 8 0 4.417969 3.582031 8 8 8h5v93h-131v-262h440v262zm0 0" fill="#9bdb72"/><path d="m123.308594 88.261719c15.972656 0 28.96875-13.453125 28.96875-29.992188 0-16.539062-12.996094-29.992187-28.96875-29.992187-15.96875 0-28.964844 13.453125-28.964844 29.992187 0 16.539063 12.996094 29.992188 28.964844 29.992188zm0-43.984375c7.152344 0 12.96875 6.277344 12.96875 13.992187 0 7.714844-5.816406 13.992188-12.96875 13.992188-7.148438 0-12.964844-6.277344-12.964844-13.992188 0-7.714843 5.816406-13.992187 12.964844-13.992187zm0 0" fill="#9bdb72"/><path d="m191.449219 88.261719c15.972656 0 28.964843-13.453125 28.964843-29.992188 0-16.539062-12.992187-29.992187-28.964843-29.992187-15.972657 0-28.96875 13.453125-28.96875 29.992187 0 16.539063 12.996093 29.992188 28.96875 29.992188zm0-43.984375c7.148437 0 12.964843 6.277344 12.964843 13.992187 0 7.714844-5.816406 13.992188-12.964843 13.992188-7.152344 0-12.96875-6.277344-12.96875-13.992188 0-7.714843 5.820312-13.992187 12.96875-13.992187zm0 0" fill="#9bdb72"/><path d="m55.171875 88.261719c15.972656 0 28.964844-13.453125 28.964844-29.992188 0-16.539062-12.992188-29.992187-28.964844-29.992187s-28.964844 13.453125-28.964844 29.992187c0 16.539063 12.992188 29.992188 28.964844 29.992188zm0-43.984375c7.148437 0 12.964844 6.277344 12.964844 13.992187 0 7.714844-5.816407 13.992188-12.964844 13.992188s-12.964844-6.277344-12.964844-13.992188c0-7.714843 5.816407-13.992187 12.964844-13.992187zm0 0" fill="#9bdb72"/></svg>
